<mxfile host="Electron" modified="2024-05-19T15:30:29.142Z" agent="Mozilla/5.0 (Windows NT 10.0; Win64; x64) AppleWebKit/537.36 (KHTML, like Gecko) draw.io/24.4.0 Chrome/120.0.6099.109 Electron/28.1.0 Safari/537.36" version="24.4.0" etag="ryyzxVTAEGizpGXiHITX" type="device">
  <diagram id="0cNQ_x8TMOvFBzhkU8wX" name="Page-1">
    <mxGraphModel dx="1344" dy="920" grid="1" gridSize="10" guides="1" tooltips="1" connect="1" arrows="1" fold="1" page="1" pageScale="1" pageWidth="850" pageHeight="1100" math="0" shadow="0">
      <root>
        <mxCell id="0" />
        <mxCell id="1" parent="0" />
        <mxCell id="Vgnb7qdaiymQg7RaKHQl-1" value="" style="swimlane;startSize=0;labelBackgroundColor=none;fillColor=#f8cecc;strokeColor=#b85450;" vertex="1" parent="1">
          <mxGeometry x="790" y="340" width="600" height="190" as="geometry" />
        </mxCell>
        <mxCell id="Vgnb7qdaiymQg7RaKHQl-2" value="" style="rounded=0;whiteSpace=wrap;html=1;fillColor=#f8cecc;strokeColor=#b85450;" vertex="1" parent="Vgnb7qdaiymQg7RaKHQl-1">
          <mxGeometry y="-3.75" width="600" height="193.75" as="geometry" />
        </mxCell>
        <mxCell id="Vgnb7qdaiymQg7RaKHQl-3" value="&lt;div style=&quot;font-size: 18px;&quot;&gt;FPGA system t&lt;span style=&quot;text-wrap: nowrap; background-color: initial;&quot;&gt;est data&lt;/span&gt;&lt;/div&gt;" style="text;html=1;align=center;verticalAlign=middle;whiteSpace=wrap;rounded=0;fontSize=18;labelBackgroundColor=none;" vertex="1" parent="Vgnb7qdaiymQg7RaKHQl-1">
          <mxGeometry x="20" y="10" width="190" height="50" as="geometry" />
        </mxCell>
        <mxCell id="Vgnb7qdaiymQg7RaKHQl-4" style="edgeStyle=orthogonalEdgeStyle;rounded=0;orthogonalLoop=1;jettySize=auto;html=1;entryX=0;entryY=0.5;entryDx=0;entryDy=0;labelBackgroundColor=none;fontColor=default;" edge="1" parent="Vgnb7qdaiymQg7RaKHQl-1" source="Vgnb7qdaiymQg7RaKHQl-5" target="Vgnb7qdaiymQg7RaKHQl-8">
          <mxGeometry relative="1" as="geometry" />
        </mxCell>
        <mxCell id="Vgnb7qdaiymQg7RaKHQl-5" value="Digital Encryption Accelerator (DEA) on FPGA&amp;nbsp;" style="whiteSpace=wrap;html=1;shadow=1;fontSize=18;labelBackgroundColor=none;" vertex="1" parent="Vgnb7qdaiymQg7RaKHQl-1">
          <mxGeometry x="10" y="56.25" width="170" height="90" as="geometry" />
        </mxCell>
        <mxCell id="Vgnb7qdaiymQg7RaKHQl-6" style="edgeStyle=orthogonalEdgeStyle;rounded=0;orthogonalLoop=1;jettySize=auto;html=1;labelBackgroundColor=none;fontColor=default;" edge="1" parent="Vgnb7qdaiymQg7RaKHQl-1" source="Vgnb7qdaiymQg7RaKHQl-8" target="Vgnb7qdaiymQg7RaKHQl-9">
          <mxGeometry relative="1" as="geometry" />
        </mxCell>
        <mxCell id="Vgnb7qdaiymQg7RaKHQl-7" style="edgeStyle=orthogonalEdgeStyle;rounded=0;orthogonalLoop=1;jettySize=auto;html=1;entryX=0;entryY=0.5;entryDx=0;entryDy=0;labelBackgroundColor=none;fontColor=default;" edge="1" parent="Vgnb7qdaiymQg7RaKHQl-1" source="Vgnb7qdaiymQg7RaKHQl-8">
          <mxGeometry relative="1" as="geometry">
            <mxPoint x="440" y="138.75" as="targetPoint" />
          </mxGeometry>
        </mxCell>
        <mxCell id="Vgnb7qdaiymQg7RaKHQl-8" value="Performs parallel encryption of data" style="whiteSpace=wrap;html=1;shadow=1;fontSize=18;labelBackgroundColor=none;" vertex="1" parent="Vgnb7qdaiymQg7RaKHQl-1">
          <mxGeometry x="220" y="56.25" width="170" height="90" as="geometry" />
        </mxCell>
        <mxCell id="Vgnb7qdaiymQg7RaKHQl-9" value="Basic encryption" style="whiteSpace=wrap;html=1;shadow=1;fontSize=18;labelBackgroundColor=none;" vertex="1" parent="Vgnb7qdaiymQg7RaKHQl-1">
          <mxGeometry x="440" y="38.75" width="130" height="60" as="geometry" />
        </mxCell>
        <mxCell id="Vgnb7qdaiymQg7RaKHQl-10" value="Advanced encryption" style="whiteSpace=wrap;html=1;shadow=1;fontSize=18;labelBackgroundColor=none;" vertex="1" parent="Vgnb7qdaiymQg7RaKHQl-1">
          <mxGeometry x="440" y="110" width="130" height="60" as="geometry" />
        </mxCell>
        <mxCell id="Vgnb7qdaiymQg7RaKHQl-11" value="" style="swimlane;startSize=0;labelBackgroundColor=none;" vertex="1" parent="1">
          <mxGeometry x="790" y="540" width="600" height="180" as="geometry" />
        </mxCell>
        <mxCell id="Vgnb7qdaiymQg7RaKHQl-12" value="" style="rounded=0;whiteSpace=wrap;html=1;fillColor=#d5e8d4;strokeColor=#82b366;" vertex="1" parent="Vgnb7qdaiymQg7RaKHQl-11">
          <mxGeometry width="600" height="180" as="geometry" />
        </mxCell>
        <mxCell id="Vgnb7qdaiymQg7RaKHQl-13" value="" style="edgeStyle=orthogonalEdgeStyle;rounded=0;orthogonalLoop=1;jettySize=auto;html=1;labelBackgroundColor=none;fontColor=default;" edge="1" parent="Vgnb7qdaiymQg7RaKHQl-11" source="Vgnb7qdaiymQg7RaKHQl-14" target="Vgnb7qdaiymQg7RaKHQl-17">
          <mxGeometry relative="1" as="geometry" />
        </mxCell>
        <mxCell id="Vgnb7qdaiymQg7RaKHQl-14" value="Digital Encryption Accelerator (DEA) using OpenCL" style="whiteSpace=wrap;html=1;shadow=1;fontSize=18;labelBackgroundColor=none;" vertex="1" parent="Vgnb7qdaiymQg7RaKHQl-11">
          <mxGeometry x="20" y="45" width="170" height="90" as="geometry" />
        </mxCell>
        <mxCell id="Vgnb7qdaiymQg7RaKHQl-15" style="edgeStyle=orthogonalEdgeStyle;rounded=0;orthogonalLoop=1;jettySize=auto;html=1;labelBackgroundColor=none;fontColor=default;" edge="1" parent="Vgnb7qdaiymQg7RaKHQl-11" source="Vgnb7qdaiymQg7RaKHQl-17" target="Vgnb7qdaiymQg7RaKHQl-18">
          <mxGeometry relative="1" as="geometry" />
        </mxCell>
        <mxCell id="Vgnb7qdaiymQg7RaKHQl-16" style="edgeStyle=orthogonalEdgeStyle;rounded=0;orthogonalLoop=1;jettySize=auto;html=1;labelBackgroundColor=none;fontColor=default;" edge="1" parent="Vgnb7qdaiymQg7RaKHQl-11" source="Vgnb7qdaiymQg7RaKHQl-17" target="Vgnb7qdaiymQg7RaKHQl-19">
          <mxGeometry relative="1" as="geometry" />
        </mxCell>
        <mxCell id="Vgnb7qdaiymQg7RaKHQl-17" value="Performs parallel encryption of data" style="whiteSpace=wrap;html=1;shadow=1;fontSize=18;labelBackgroundColor=none;" vertex="1" parent="Vgnb7qdaiymQg7RaKHQl-11">
          <mxGeometry x="220" y="45" width="170" height="90" as="geometry" />
        </mxCell>
        <mxCell id="Vgnb7qdaiymQg7RaKHQl-18" value="Basic encryption" style="whiteSpace=wrap;html=1;shadow=1;fontSize=18;labelBackgroundColor=none;" vertex="1" parent="Vgnb7qdaiymQg7RaKHQl-11">
          <mxGeometry x="430" y="30" width="130" height="60" as="geometry" />
        </mxCell>
        <mxCell id="Vgnb7qdaiymQg7RaKHQl-19" value="Advanced encryption" style="whiteSpace=wrap;html=1;shadow=1;fontSize=18;labelBackgroundColor=none;" vertex="1" parent="Vgnb7qdaiymQg7RaKHQl-11">
          <mxGeometry x="430" y="101.25" width="130" height="60" as="geometry" />
        </mxCell>
        <mxCell id="Vgnb7qdaiymQg7RaKHQl-20" value="&lt;div style=&quot;font-size: 18px;&quot;&gt;OpenCL system t&lt;span style=&quot;text-wrap: nowrap; background-color: initial;&quot;&gt;est data&lt;/span&gt;&lt;/div&gt;" style="text;html=1;align=center;verticalAlign=middle;whiteSpace=wrap;rounded=0;fontSize=18;labelBackgroundColor=none;" vertex="1" parent="Vgnb7qdaiymQg7RaKHQl-11">
          <mxGeometry x="20" width="220" height="50" as="geometry" />
        </mxCell>
        <mxCell id="Vgnb7qdaiymQg7RaKHQl-21" value="" style="swimlane;startSize=0;labelBackgroundColor=none;" vertex="1" parent="1">
          <mxGeometry x="790" y="740" width="600" height="180" as="geometry" />
        </mxCell>
        <mxCell id="Vgnb7qdaiymQg7RaKHQl-22" value="" style="rounded=0;whiteSpace=wrap;html=1;fillColor=#fff2cc;strokeColor=#d6b656;" vertex="1" parent="Vgnb7qdaiymQg7RaKHQl-21">
          <mxGeometry width="600" height="180" as="geometry" />
        </mxCell>
        <mxCell id="Vgnb7qdaiymQg7RaKHQl-23" style="edgeStyle=orthogonalEdgeStyle;rounded=0;orthogonalLoop=1;jettySize=auto;html=1;entryX=0;entryY=0.5;entryDx=0;entryDy=0;labelBackgroundColor=none;fontColor=default;" edge="1" parent="Vgnb7qdaiymQg7RaKHQl-21" source="Vgnb7qdaiymQg7RaKHQl-25" target="Vgnb7qdaiymQg7RaKHQl-26">
          <mxGeometry relative="1" as="geometry" />
        </mxCell>
        <mxCell id="Vgnb7qdaiymQg7RaKHQl-24" style="edgeStyle=orthogonalEdgeStyle;rounded=0;orthogonalLoop=1;jettySize=auto;html=1;labelBackgroundColor=none;fontColor=default;" edge="1" parent="Vgnb7qdaiymQg7RaKHQl-21" source="Vgnb7qdaiymQg7RaKHQl-25" target="Vgnb7qdaiymQg7RaKHQl-27">
          <mxGeometry relative="1" as="geometry">
            <Array as="points">
              <mxPoint x="280" y="90" />
              <mxPoint x="280" y="130" />
            </Array>
          </mxGeometry>
        </mxCell>
        <mxCell id="Vgnb7qdaiymQg7RaKHQl-25" value="Encryption using python" style="whiteSpace=wrap;html=1;shadow=1;fontSize=18;labelBackgroundColor=none;" vertex="1" parent="Vgnb7qdaiymQg7RaKHQl-21">
          <mxGeometry x="20" y="45" width="170" height="90" as="geometry" />
        </mxCell>
        <mxCell id="Vgnb7qdaiymQg7RaKHQl-26" value="Basic encryption" style="whiteSpace=wrap;html=1;shadow=1;fontSize=18;labelBackgroundColor=none;" vertex="1" parent="Vgnb7qdaiymQg7RaKHQl-21">
          <mxGeometry x="370" y="30" width="130" height="60" as="geometry" />
        </mxCell>
        <mxCell id="Vgnb7qdaiymQg7RaKHQl-27" value="Advanced encryption" style="whiteSpace=wrap;html=1;shadow=1;fontSize=18;labelBackgroundColor=none;" vertex="1" parent="Vgnb7qdaiymQg7RaKHQl-21">
          <mxGeometry x="370" y="101.25" width="130" height="60" as="geometry" />
        </mxCell>
        <mxCell id="Vgnb7qdaiymQg7RaKHQl-28" value="&lt;font style=&quot;font-size: 18px;&quot;&gt;Collection golden measures test data&lt;/font&gt;" style="text;html=1;align=center;verticalAlign=middle;resizable=0;points=[];autosize=1;strokeColor=none;fillColor=none;labelBackgroundColor=none;" vertex="1" parent="Vgnb7qdaiymQg7RaKHQl-21">
          <mxGeometry x="20" y="5" width="320" height="40" as="geometry" />
        </mxCell>
        <mxCell id="Vgnb7qdaiymQg7RaKHQl-29" value="Data output&lt;br&gt;&lt;br&gt;&lt;div&gt;Encrypted data and time taken&lt;/div&gt;" style="whiteSpace=wrap;html=1;shadow=1;fontSize=18;labelBackgroundColor=none;" vertex="1" parent="1">
          <mxGeometry x="1440" y="340" width="90" height="590" as="geometry" />
        </mxCell>
        <mxCell id="Vgnb7qdaiymQg7RaKHQl-30" style="edgeStyle=orthogonalEdgeStyle;rounded=0;orthogonalLoop=1;jettySize=auto;html=1;labelBackgroundColor=none;fontColor=default;" edge="1" parent="1" source="Vgnb7qdaiymQg7RaKHQl-33" target="Vgnb7qdaiymQg7RaKHQl-5">
          <mxGeometry relative="1" as="geometry">
            <Array as="points">
              <mxPoint x="770" y="441" />
              <mxPoint x="770" y="441" />
            </Array>
          </mxGeometry>
        </mxCell>
        <mxCell id="Vgnb7qdaiymQg7RaKHQl-31" style="edgeStyle=orthogonalEdgeStyle;rounded=0;orthogonalLoop=1;jettySize=auto;html=1;entryX=0;entryY=0.5;entryDx=0;entryDy=0;labelBackgroundColor=none;fontColor=default;" edge="1" parent="1" source="Vgnb7qdaiymQg7RaKHQl-33" target="Vgnb7qdaiymQg7RaKHQl-14">
          <mxGeometry relative="1" as="geometry" />
        </mxCell>
        <mxCell id="Vgnb7qdaiymQg7RaKHQl-32" style="edgeStyle=orthogonalEdgeStyle;rounded=0;orthogonalLoop=1;jettySize=auto;html=1;labelBackgroundColor=none;fontColor=default;" edge="1" parent="1" source="Vgnb7qdaiymQg7RaKHQl-33" target="Vgnb7qdaiymQg7RaKHQl-25">
          <mxGeometry relative="1" as="geometry">
            <Array as="points">
              <mxPoint x="750" y="830" />
              <mxPoint x="750" y="830" />
            </Array>
          </mxGeometry>
        </mxCell>
        <mxCell id="Vgnb7qdaiymQg7RaKHQl-33" value="&lt;div&gt;Data input&lt;/div&gt;&lt;br&gt;&lt;div&gt;(PC or other computing/ storage device)&lt;/div&gt;" style="whiteSpace=wrap;html=1;shadow=1;fontSize=18;labelBackgroundColor=none;" vertex="1" parent="1">
          <mxGeometry x="630" y="340" width="110" height="580" as="geometry" />
        </mxCell>
        <mxCell id="Vgnb7qdaiymQg7RaKHQl-34" value="" style="edgeStyle=orthogonalEdgeStyle;rounded=0;orthogonalLoop=1;jettySize=auto;html=1;labelBackgroundColor=none;fontColor=default;" edge="1" parent="1" source="Vgnb7qdaiymQg7RaKHQl-9" target="Vgnb7qdaiymQg7RaKHQl-29">
          <mxGeometry relative="1" as="geometry">
            <Array as="points">
              <mxPoint x="1420" y="409" />
              <mxPoint x="1420" y="409" />
            </Array>
          </mxGeometry>
        </mxCell>
        <mxCell id="Vgnb7qdaiymQg7RaKHQl-35" style="edgeStyle=orthogonalEdgeStyle;rounded=0;orthogonalLoop=1;jettySize=auto;html=1;entryX=0.001;entryY=0.237;entryDx=0;entryDy=0;entryPerimeter=0;labelBackgroundColor=none;fontColor=default;" edge="1" parent="1" source="Vgnb7qdaiymQg7RaKHQl-10" target="Vgnb7qdaiymQg7RaKHQl-29">
          <mxGeometry relative="1" as="geometry" />
        </mxCell>
        <mxCell id="Vgnb7qdaiymQg7RaKHQl-36" value="" style="edgeStyle=orthogonalEdgeStyle;rounded=0;orthogonalLoop=1;jettySize=auto;html=1;labelBackgroundColor=none;fontColor=default;" edge="1" parent="1" source="Vgnb7qdaiymQg7RaKHQl-18" target="Vgnb7qdaiymQg7RaKHQl-29">
          <mxGeometry relative="1" as="geometry">
            <Array as="points">
              <mxPoint x="1430" y="600" />
              <mxPoint x="1430" y="600" />
            </Array>
          </mxGeometry>
        </mxCell>
        <mxCell id="Vgnb7qdaiymQg7RaKHQl-37" value="" style="edgeStyle=orthogonalEdgeStyle;rounded=0;orthogonalLoop=1;jettySize=auto;html=1;labelBackgroundColor=none;fontColor=default;" edge="1" parent="1" source="Vgnb7qdaiymQg7RaKHQl-19" target="Vgnb7qdaiymQg7RaKHQl-29">
          <mxGeometry relative="1" as="geometry">
            <Array as="points">
              <mxPoint x="1420" y="671" />
              <mxPoint x="1420" y="671" />
            </Array>
          </mxGeometry>
        </mxCell>
        <mxCell id="Vgnb7qdaiymQg7RaKHQl-38" style="edgeStyle=orthogonalEdgeStyle;rounded=0;orthogonalLoop=1;jettySize=auto;html=1;entryX=0.022;entryY=0.779;entryDx=0;entryDy=0;entryPerimeter=0;labelBackgroundColor=none;fontColor=default;" edge="1" parent="1" source="Vgnb7qdaiymQg7RaKHQl-26" target="Vgnb7qdaiymQg7RaKHQl-29">
          <mxGeometry relative="1" as="geometry" />
        </mxCell>
        <mxCell id="Vgnb7qdaiymQg7RaKHQl-39" style="edgeStyle=orthogonalEdgeStyle;rounded=0;orthogonalLoop=1;jettySize=auto;html=1;entryX=0.036;entryY=0.901;entryDx=0;entryDy=0;entryPerimeter=0;labelBackgroundColor=none;fontColor=default;" edge="1" parent="1" source="Vgnb7qdaiymQg7RaKHQl-27" target="Vgnb7qdaiymQg7RaKHQl-29">
          <mxGeometry relative="1" as="geometry" />
        </mxCell>
      </root>
    </mxGraphModel>
  </diagram>
</mxfile>
